<?xml version="1.0" encoding="UTF-8"?>
<svg id="Layer_1" xmlns="http://www.w3.org/2000/svg" version="1.1" viewBox="0 0 1080 1080">
  <!-- Generator: Adobe Illustrator 30.3.0, SVG Export Plug-In . SVG Version: 2.1.3 Build 182)  -->
  <defs>
    <style>
      .st0 {
        fill: #0c3693;
      }

      .st1 {
        fill: #ffb600;
      }

      .st2 {
        fill: #0723f9;
      }
    </style>
  </defs>
  <path class="st2" d="M653.97,592c.65.13,1.3.23,1.95.34-.21-.04-.42-.06-.63-.11-.08-.02-.17-.02-.25-.04-.36-.06-.71-.13-1.07-.19"/>
  <path class="st0" d="M661.55,460.09c-2.24.17-4.51.42-6.8.8,2.22-.4,4.49-.65,6.8-.8"/>
  <path class="st2" d="M691.63,587.89c.44-.17.88-.38,1.32-.57-.02.02-.04.04-.06.04-.42.17-.84.34-1.26.53"/>
  <path class="st2" d="M348.04,598.89c-46.98,0-83.45-45.26-68.18-94.52,6.68-21.55,23.81-38.68,45.36-45.36,49.26-15.27,94.52,21.2,94.52,68.18v62.36c0,4.38-2.99,8.36-7.29,9.17-5.96,1.12-11.35-3.22-11.35-9v-62.55c0-23.35-15.11-44.41-37.56-50.82-41.17-11.77-78.2,25.33-66.31,66.51,5.59,19.35,22.23,33.8,42.15,36.76,15.59,2.32,30.28-1.65,41.93-10.83,4.02-3.44,9.75-2.58,13.19,1.44,3.15,4.01,2.58,9.75-1.43,12.91-12.91,10.33-28.68,15.78-45.03,15.78"/>
  <path class="st2" d="M643,570.07c-.5-.25-1.01-.52-1.49-.82.02.04.04.06.08.06.44.25.88.5,1.32.73t.04.02s.1.04.15.06c-.04,0-.08-.02-.1-.06M652.52,573.89c-.44-.13-.86-.25-1.28-.38-.4-.13-.78-.25-1.17-.38,1.36.5,2.77.9,4.2,1.24-.59-.17-1.15-.32-1.74-.48"/>
  <path class="st2" d="M650.32,519.59h58.85c2.75,0,4.71-2.61,4.03-5.27-15.28-60.41-109.17-40.45-94.84,23.93,1.21,4.97,3.16,9.8,5.83,14.14,3.35,5.51,7.85,10.26,13.01,14.12h.02c.89.67,1.88,1.31,2.81,1.89.48.3.97.62,1.47.86,22.79,13.71,53.27,4.83,66.79-17.68,1.69-2.81,4.65-4.78,7.92-4.62,1.31.07,2.64.42,3.88,1.12,14.73,11.38-14.44,32.63-24.15,37.79-55.71,29.9-119.85-34.63-88.9-90.47,13.9-27.48,48.36-42.03,77.9-32.69,27.26,8.29,47.12,33.95,47.12,64.08,0,4.53-4.53,8.79-8.52,8.79h-74.15c-10.16-.44-7.81-16.85.9-15.99"/>
  <path class="st2" d="M802.99,519.59h58.85c2.75,0,4.71-2.61,4.03-5.27-15.28-60.41-109.17-40.45-94.84,23.93,1.21,4.97,3.16,9.8,5.83,14.14,3.35,5.51,7.85,10.26,13.01,14.12h.02c.89.67,1.88,1.31,2.81,1.89.48.3.97.62,1.47.86,22.79,13.71,53.27,4.83,66.79-17.68,1.69-2.81,4.65-4.78,7.92-4.62,1.31.07,2.64.42,3.88,1.12,14.73,11.38-14.44,32.63-24.15,37.79-55.71,29.9-119.85-34.63-88.9-90.47,13.9-27.48,48.36-42.03,77.9-32.69,27.26,8.29,47.12,33.95,47.12,64.08,0,4.53-4.53,8.79-8.52,8.79h-74.15c-10.16-.44-7.81-16.85.9-15.99"/>
  <path class="st2" d="M643.1,570.14s-.1-.04-.15-.06h.04s.06.06.1.06"/>
  <path class="st2" d="M579.61,528.03c0,38.16-32.55,69.31-72.4,69.31-23.85,0-46.3-11.51-59.77-30.31-2.81-3.93-1.97-9.26,1.96-12.06,3.93-2.53,9.26-1.69,12.07,2.24,10.1,14.31,27.22,23.01,45.74,23.01,30.03,0,54.44-22.73,55-52.64h-112.53c-10.1,1.84-9.82-5.74-9.82-8.54,0-18.24,21.61-62.02,69.87-62.02,14.31,0,28.06,4.21,39.85,12.35,4.21,3.09,5.33,8.7,2.53,12.91-2.81,4.21-8.7,5.33-12.91,2.24-8.7-5.89-18.8-8.98-29.47-8.98-23.29,0-43.21,15.16-49.95,36.06h110.84c4.77.71,8.7,4.35,8.7,8.84l.28,7.58Z"/>
  <path class="st2" d="M984.23,589.69c-1.17,3.93-5.05,6.44-9.15,6.43-38.88-.12-70.4-30.93-70.4-68.89v-119.04c0-4.02,2.38-7.82,6.19-9.11,6.35-2.15,12.46,2.61,12.46,8.57v50.7h41.93c3.52,0,6.88,2.09,7.95,5.44,1.76,5.49-2.42,10.54-7.79,10.54h-42.09v52.91c0,28.11,23.17,50.98,51.98,50.98,5.97,0,10.77,5.31,8.92,11.48"/>
  <path class="st2" d="M185.88,456.77c-20.62,0-39.26,9.04-51.97,23.16v-74.81c0-3.99-2.35-7.75-6.11-9.09-6.38-2.28-12.54,2.62-12.54,8.76v122.87c0,3.97.38,7.85,1.02,11.64l18.03-5.5c-.25-2.02-.41-4.06-.41-6.14,0-28.81,23.16-52.54,51.97-52.54s53.53,25.34,51.9,55.44c-1.47,26.94-24.03,48.61-51.01,49.07-5.03.09-9.88-.56-14.47-1.82l-5.36,17.57c9.5,2.65,19.78,3.4,30.45,1.7,29.98-4.78,53.8-28.85,58.08-58.9,6.26-43.97-27.48-81.42-69.58-81.42"/>
  <path class="st1" d="M160.42,534.62l-58.15,17.74c-8.46,2.59-9.07,14.33-.91,17.79l13.86,5.83c7.34,3.11,13.21,8.94,16.32,16.32l5.83,13.86c3.45,8.16,15.2,7.56,17.78-.91l17.74-58.15c2.37-7.64-4.79-14.81-12.48-12.48"/>
</svg>