<?xml version="1.0" encoding="UTF-8"?>
<svg id="Layer_1" xmlns="http://www.w3.org/2000/svg" xmlns:xlink="http://www.w3.org/1999/xlink" version="1.1" viewBox="0 0 1080 1080">
  <!-- Generator: Adobe Illustrator 30.3.0, SVG Export Plug-In . SVG Version: 2.1.3 Build 182)  -->
  <defs>
    <style>
      .st0, .st1 {
        fill: none;
      }

      .st2 {
        fill: #8e000b;
      }

      .st1 {
        stroke: #fcfcfc;
        stroke-miterlimit: 10;
        stroke-width: 11.32px;
      }

      .st3 {
        clip-path: url(#clippath-1);
      }

      .st4 {
        clip-path: url(#clippath);
      }
    </style>
    <clipPath id="clippath">
      <rect class="st0" x="-99.83" y="-172.36" width="1358.72" height="1358.72"/>
    </clipPath>
    <clipPath id="clippath-1">
      <rect class="st0" x="-99.83" y="-172.36" width="1358.72" height="1358.72"/>
    </clipPath>
  </defs>
  <g class="st4">
    <g class="st3">
      <path class="st2" d="M956.15,605.69l-80.22-184.87h-2.55l-58.77,135.45c8.76-1.6,17.76-2.41,26.94-2.41,5.85,0,11.66.31,17.33.99l13.36-32.08,14.99,38.07,7.55,19.18,1.42,3.58c-14.18-5.46-29.39-8.86-45.23-9.78-3.12-.21-6.27-.32-9.43-.32-12.51,0-24.71,1.52-36.33,4.36l-15.38,35.49-11.84,27.3-10.53,24.25h45.62l18.68-44.81c3.23-.36,6.49-.5,9.79-.5,35.31,0,66.68,17.23,86.1,43.74l.6,1.56h53.6l-25.7-59.2Z"/>
      <path class="st1" d="M956.15,605.69l-80.22-184.87h-2.55l-58.77,135.45c8.76-1.6,17.76-2.41,26.94-2.41,5.85,0,11.66.31,17.33.99l13.36-32.08,14.99,38.07,7.55,19.18,1.42,3.58c-14.18-5.46-29.39-8.86-45.23-9.78-3.12-.21-6.27-.32-9.43-.32-12.51,0-24.71,1.52-36.33,4.36l-15.38,35.49-11.84,27.3-10.53,24.25h45.62l18.68-44.81c3.23-.36,6.49-.5,9.79-.5,35.31,0,66.68,17.23,86.1,43.74l.6,1.56h53.6l-25.7-59.2Z"/>
      <path class="st2" d="M607.54,460.9c-11.15-11.15-23.95-19.91-38.39-26.28-14.45-6.37-29.95-9.56-46.51-9.56s-31.75,3.19-46.2,9.56c-14.44,6.37-27.13,15.13-38.07,26.28-10.94,11.15-19.49,23.95-25.65,38.39-6.16,14.45-9.24,29.74-9.24,45.88s3.08,32.07,9.24,46.51c6.16,14.45,14.71,27.13,25.65,38.07,10.94,10.94,23.63,19.49,38.07,25.65,14.44,6.16,29.95,9.24,46.52,9.24s31.75-3.08,46.19-9.24c14.44-6.16,27.24-14.7,38.39-25.65,11.15-10.94,19.86-23.62,26.12-38.07,6.26-14.44,9.4-29.95,9.4-46.51s-3.14-31.43-9.4-45.88c-6.27-14.44-14.97-27.24-26.12-38.39M586.03,582.92c-6.16,11.36-14.6,20.39-25.33,27.08-10.73,6.69-22.78,10.03-36.16,10.03s-26.23-3.35-37.27-10.03c-11.05-6.69-19.81-15.72-26.28-27.08-6.48-11.36-9.71-23.94-9.71-37.75s3.18-27.02,9.56-38.39c6.37-11.36,14.97-20.39,25.8-27.08,10.83-6.69,23.04-10.03,36.64-10.03s25.8,3.34,36.64,10.03c10.83,6.69,19.43,15.72,25.8,27.08,6.37,11.37,9.56,24.17,9.56,38.39s-3.08,26.39-9.24,37.75"/>
      <path class="st1" d="M607.54,460.9c-11.15-11.15-23.95-19.91-38.39-26.28-14.45-6.37-29.95-9.56-46.51-9.56s-31.75,3.19-46.2,9.56c-14.44,6.37-27.13,15.13-38.07,26.28-10.94,11.15-19.49,23.95-25.65,38.39-6.16,14.45-9.24,29.74-9.24,45.88s3.08,32.07,9.24,46.51c6.16,14.45,14.71,27.13,25.65,38.07,10.94,10.94,23.63,19.49,38.07,25.65,14.44,6.16,29.95,9.24,46.52,9.24s31.75-3.08,46.19-9.24c14.44-6.16,27.24-14.7,38.39-25.65,11.15-10.94,19.86-23.62,26.12-38.07,6.26-14.44,9.4-29.95,9.4-46.51s-3.14-31.43-9.4-45.88c-6.27-14.44-14.97-27.24-26.12-38.39ZM586.03,582.92c-6.16,11.36-14.6,20.39-25.33,27.08-10.73,6.69-22.78,10.03-36.16,10.03s-26.23-3.35-37.27-10.03c-11.05-6.69-19.81-15.72-26.28-27.08-6.48-11.36-9.71-23.94-9.71-37.75s3.18-27.02,9.56-38.39c6.37-11.36,14.97-20.39,25.8-27.08,10.83-6.69,23.04-10.03,36.64-10.03s25.8,3.34,36.64,10.03c10.83,6.69,19.43,15.72,25.8,27.08,6.37,11.37,9.56,24.17,9.56,38.39s-3.08,26.39-9.24,37.75Z"/>
      <path class="st2" d="M672.36,427.11h-57.02l69.52,130.09c1.7-17.73,6.44-34.55,13.7-49.95,2.12-4.56,4.5-9.03,7.04-13.31l-33.24-66.83Z"/>
      <path class="st1" d="M672.36,427.11h-57.02l69.52,130.09c1.7-17.73,6.44-34.55,13.7-49.95,2.12-4.56,4.5-9.03,7.04-13.31l-33.24-66.83Z"/>
      <path class="st2" d="M833.61,429.14c-5.15.64-10.24,1.56-15.25,2.73-20.22,4.71-38.93,13.49-55.16,25.41-20.08,14.73-36.46,34.26-47.4,56.96-.28.53-.56,1.1-.81,1.66-9.21,19.65-14.36,41.55-14.36,64.67,0,2.09.04,4.14.14,6.19.21,5.31.67,10.51,1.41,15.68v59.93h44.03v-72.96l.25-.49c-.25-2.76-.35-5.55-.35-8.35,0-40.46,22.69-75.75,56.09-93.84,9.85-5.31,20.67-9.17,32.08-11.15v-46.55c-.21.04-.46.07-.67.11"/>
      <path class="st1" d="M833.61,429.14c-5.15.64-10.24,1.56-15.25,2.73-20.22,4.71-38.93,13.49-55.16,25.41-20.08,14.73-36.46,34.26-47.4,56.96-.28.53-.56,1.1-.81,1.66-9.21,19.65-14.36,41.55-14.36,64.67,0,2.09.04,4.14.14,6.19.21,5.31.67,10.51,1.41,15.68v59.93h44.03v-72.96l.25-.49c-.25-2.76-.35-5.55-.35-8.35,0-40.46,22.69-75.75,56.09-93.84,9.85-5.31,20.67-9.17,32.08-11.15v-46.55c-.21.04-.46.07-.67.11Z"/>
      <path class="st2" d="M194.56,396.84c-8.19,10.48-13,19.84-14.53,26.04-2.29,9.4,1.37,22.17,16.57,21.22,27.12-1.71,31.24-39.44,12.85-51.5,15.25-16.87,39.04-35.35,72.33-47.09,1.17-3.91,2.11-7.11,2.88-9.67-38.73,12.64-66.52,34.05-83.75,53.35-.63-.14-1.26-.23-1.89-.32-52.22-5.76-90.82,72.1-92.25,75.03,38.55-53.35,60.14-67.16,86.23-67.16.54,0,1.08,0,1.57.09M203.15,400.08c11.56,8.73,10.08,34.91-7.44,35.97-7.29.44-8.37-5.66-7.04-10.74,1.55-5.92,6.39-15.02,14.48-25.23"/>
      <path class="st2" d="M215.39,541.77h-.13c-25.46,0-37.24-9.4-39.76-18.17-1.89-6.57.81-13.27,6.84-17.09,2.97-1.84,6.79-3.01,11.43-3.01,12.69,0,20.35,7.52,33.2,21.78l2.97-9.81c-14.11-14.41-21.19-21.02-35.9-21.02-8.28,0-13.94,2.83-16.46,4.45-9.4,5.89-13.72,16.82-10.71,27.17,4.45,15.47,22.54,24.65,48.4,24.69,4.72,0,9.58-.23,14.48-.72,8.55-.81,17.32-2.29,26.18-4.41,93.02-21.95,202.5-110.15,198.9-166.82-2.02-32.3-34.28-49.49-73.77-53-22.63-1.98-43.27-1.12-61.98,1.8-1.12,2.11-2.29,4.81-3.28,8.1-.09.41-.18.76-.31,1.12,19.43-3.28,41.25-4.32,65.58-2.02,30.99,2.92,52.36,18.35,54.2,45.83,3.6,53.71-96.44,129.41-174.7,153.47,37.24-92.97,71.38-178.44,76.6-191.88.45-1.21.9-2.43,1.3-3.6-3.69.27-7.29.63-10.88,1.03-3.82,12.59-11.34,21.41-16.96,19.79-5.67-1.66-7.2-13.4-3.46-26.27,3.78-12.82,11.42-21.91,17.09-20.24,2.83.85,4.59,4.09,5.26,8.77,4.32-.5,8.68-.81,13.09-1.08,3.69-37.65-32.11-42.01-46.64,8.77-1.48,5.31-31.53,105.3-63.38,211.14-6.03.85-11.78,1.3-17.18,1.21"/>
      <path class="st2" d="M251.85,555.76l-24.9,3.55c-35.13,116.84-70.5,234.39-70.5,234.39,0,0,48.54-120.98,95.4-237.94h0"/>
      <path class="st2" d="M436.37,679.59c-14.09,2.29-31.26,7.96-49.84,15.43-57.35-46.29-119.38-130.8-124.78-139.8,0,0-2.56,6.34-4,9.99,13.54,20.11,65.13,90.64,118.3,134-44.67,18.17-93.34,43.38-135.89,20.87,34.09,32.16,95.9,5.94,144.43-14.17,19.3,14.62,38.5,25.05,55.96,27.75,30.14,4.68,58.97-4.45,58.97-27.3,0-20.6-33.27-31.62-63.15-26.76M481.67,711.7c-5.04,12.01-20.11,15.65-39.81,13.04-13.85-1.84-30-10.53-46.87-23.12,16.19-6.61,30.82-10.37,41.3-11.54,38.19-4.32,51.09,7.98,45.38,21.61"/>
    </g>
  </g>
</svg>