<?xml version="1.0" encoding="UTF-8"?>
<svg id="Layer_1" xmlns="http://www.w3.org/2000/svg" version="1.1" viewBox="0 0 512 512">
  <!-- Generator: Adobe Illustrator 30.3.0, SVG Export Plug-In . SVG Version: 2.1.3 Build 182)  -->
  <defs>
    <style>
      .st0 {
        fill: #0b1d51;
      }

      .st1 {
        font-family: STHeitiTC-Light, 'Heiti TC';
        font-size: 75.73px;
        font-weight: 300;
      }
    </style>
  </defs>
  <path class="st0" d="M166.42,222.26c-12.59-13.96-30.48-23.3-48.75-23.3-15.53,0-31.05,5.93-42.89,17.77-12.17,12.17-18.67,29.25-17.67,46.44,1.9,32.74,33.61,62.8,66.25,62.8,15.52,0,31.03-5.93,42.89-17.77,12.01-11.99,18.49-28.8,17.69-45.75-.69-14.74-7.39-28.95-17.52-40.18ZM146.09,216.94c1.39.94,2.74,1.93,4.05,3,1.3,1.09,2.55,2.23,3.77,3.43.92.92,1.8,1.88,2.63,2.85.04.02.06.04.06.06,12.4,14.45,15.44,34.2,9.08,51.26-2.46,6.7-6.38,12.96-11.76,18.33-1.82,1.82-3.75,3.47-5.76,4.99-1.35.99-2.76,1.93-4.18,2.8-5.7,3.42-12.01,5.69-18.63,6.66-2.51.39-5.08.58-7.67.58-9.42,0-18.44-2.51-26.32-7.24-1.43-.86-2.81-1.8-4.17-2.8,0,0,0,.02-.02,0-.94-.71-1.86-1.44-2.74-2.19-.02-.02-.04-.04-.06-.08-.17-.14-.33-.29-.5-.44-.7-.61-1.38-1.23-2.05-1.88-.14-.13-.28-.26-.42-.4-1.09-1.09-2.14-2.23-3.13-3.42-.81-.97-1.58-1.97-2.29-2.98-.39-.55-.77-1.07-1.13-1.61-.47-.71-.92-1.44-1.35-2.18-.43-.71-.85-1.46-1.24-2.19-2.12-4.05-3.66-8.33-4.62-12.72-.3-1.24-.53-2.51-.71-3.77-.69-4.9-.69-9.85,0-14.75.47-3.25,1.26-6.47,2.35-9.61.28-.77.56-1.56.88-2.33.32-.77.64-1.54.99-2.29.71-1.52,1.48-3.02,2.35-4.47.43-.73.88-1.44,1.35-2.16.47-.71.96-1.41,1.46-2.1.39-.55.81-1.07,1.22-1.6.19-.24.39-.49.6-.73,1.03-1.24,2.12-2.44,3.28-3.6,9.68-9.68,22.55-15.03,36.25-15.03,3.83,0,7.6.41,11.24,1.26.02-.02.04-.02.06,0,6.12,1.35,11.91,3.85,17.13,7.34h0Z"/>
  <path class="st0" d="M86.73,230c-8.26,8.27-12.82,19.27-12.82,30.94s4.56,22.68,12.82,30.96c.96.96,1.95,1.86,2.98,2.7,6.85,5.72,15.18,9.15,24.07,9.92h.02c1.28.11,2.57.17,3.87.17,11.69,0,22.66-4.54,30.94-12.82,9.49-9.49,13.7-22.33,12.59-34.79-.73-8.65-4.05-17.11-9.91-24.15-.85-1.01-1.74-1.99-2.68-2.95-8.27-8.26-19.25-12.8-30.94-12.8s-22.66,4.54-30.94,12.8h0ZM117.42,295.31c-15.46-.11-28.24-12.8-28.43-28.26-.11-8.93,3.25-17.9,10.07-24.72,6.7-6.72,15.5-10.06,24.3-10.06h.23c15.45.1,28.24,12.78,28.44,28.23.12,8.94-3.23,17.92-10.06,24.75-6.72,6.7-15.5,10.06-24.3,10.06h-.25Z"/>
  <text class="st1" transform="translate(197.76 295.31)"><tspan x="0" y="0">OliSaas</tspan></text>
</svg>