<?xml version="1.0" encoding="UTF-8"?>
<svg id="Layer_1" xmlns="http://www.w3.org/2000/svg" version="1.1" viewBox="0 0 512 512">
  <!-- Generator: Adobe Illustrator 30.2.1, SVG Export Plug-In . SVG Version: 2.1.1 Build 1)  -->
  <defs>
    <style>
      .st0, .st1 {
        fill: #414042;
      }

      .st2 {
        font-family: Poppins-SemiBold, Poppins;
        font-size: 145.92px;
        font-weight: 600;
      }

      .st3 {
        fill: #f38929;
      }

      .st1 {
        font-family: Afronaut-Regular, Afronaut;
        font-size: 124.8px;
      }
    </style>
  </defs>
  <polygon class="st0" points="149.36 318.6 180.12 318.6 180.12 299.6 149.36 285.29 122.16 266.13 91.41 266.13 91.41 285.11 122.16 299.44 149.36 318.6 149.36 318.6"/>
  <polygon class="st0" points="149.36 371.14 149.36 371.02 180.12 371.02 180.12 352.02 149.36 337.69 122.16 318.54 91.41 318.54 91.41 337.53 122.16 351.86 122.16 351.98 149.36 371.14 149.36 371.14"/>
  <polygon class="st0" points="149.36 420.11 180.12 420.11 180.12 401.12 149.36 386.8 149.36 386.92 122.16 367.77 122.16 367.64 91.41 367.64 91.41 386.62 122.16 400.96 149.36 420.11 149.36 420.11"/>
  <path class="st3" d="M257.8,27.44c68.24,0,117.93,13.25,149.08,39.73,31.14,26.49,46.72,67.18,46.72,122.07s-16,95.04-48,120.47c-31.99,25.43-80.85,38.14-146.54,38.14h-49.58v-85.82h57.21c33.05,0,55.52-6.69,67.38-20.03,11.87-13.35,17.8-32.85,17.8-58.49s-7.73-43.87-23.2-54.68c-15.47-10.81-39.53-16.21-72.16-16.21h-85.76v22.96h-21.4v26.16h21.4v25.57h-21.4v48.85l30.76,14.33v19h-30.76l-27.2-19.16-30.76-14.33v-18.99h30.76v-29.7h-21.4v-25.57h21.4v-26.16h-21.4V27.44h157.04Z"/>
  <polygon class="st0" points="122.16 480.67 149.36 480.67 149.36 439.21 122.16 420.05 91.41 420.05 91.41 439.04 122.16 453.38 122.16 480.67 122.16 480.67"/>
  <text class="st1" transform="translate(196.34 478.69)"><tspan x="0" y="0">illar</tspan></text>
  <text class="st2" transform="translate(-584.75 713.12)"><tspan x="0" y="0">Manufacturing power</tspan><tspan x="0" y="175.1">engineering precision</tspan></text>
</svg>