<?xml version="1.0" encoding="UTF-8"?>
<svg id="Layer_1" xmlns="http://www.w3.org/2000/svg" version="1.1" viewBox="0 0 512 512">
  <!-- Generator: Adobe Illustrator 30.2.1, SVG Export Plug-In . SVG Version: 2.1.1 Build 1)  -->
  <defs>
    <style>
      .st0 {
        fill: #23a372;
      }

      .st1 {
        fill: #008756;
      }
    </style>
  </defs>
  <path class="st1" d="M386.1,168.34l-179,238.66c-5.65,7.49-14.46,11.96-23.88,11.96s-18.24-4.47-23.85-11.96l-52.09-69.43c-.96-1.28-.96-3.05,0-4.34l32.75-43.71c1.44-1.93,4.34-1.93,5.78,0l36.1,48.1c.66.88,1.98.88,2.64,0l80.33-107.12,73.49-97.98c9.87-13.2,28.56-15.85,41.76-5.95,13.2,9.87,15.85,28.56,5.98,41.76Z"/>
  <path class="st1" d="M486.98,168.34l-179.03,238.66c-5.86,7.82-14.8,11.96-23.88,11.96-6.22,0-12.5-1.96-17.88-5.98-13.16-9.9-15.85-28.59-5.95-41.76l100.34-133.79,78.66-104.9c9.87-13.16,28.59-15.85,41.76-5.95,2.96,2.23,5.4,4.89,7.28,7.85,6.49,10.18,6.34,23.67-1.3,33.91Z"/>
  <path class="st0" d="M386.1,168.34l-54.35,72.47c-2.2.12-4.41.15-6.64.15-21.14,0-41.43-3.68-60.24-10.45l73.49-97.98c9.87-13.2,28.56-15.85,41.76-5.95,13.2,9.87,15.85,28.56,5.98,41.76Z"/>
  <path class="st0" d="M488.28,134.43c-22.95,52.3-70.32,91.4-127.69,102.99l78.66-104.9c9.87-13.16,28.59-15.85,41.76-5.95,2.96,2.23,5.4,4.89,7.28,7.85Z"/>
  <path class="st1" d="M168.09,188.84c-.82-9.09-3.29-18.12-7.52-26.66-.03-.12-.09-.21-.15-.33-12.74-25.48-38.26-41.25-66.7-41.25s-53.96,15.76-66.7,41.25c-7.43,14.83-9.6,31.16-6.76,46.71,2.05,11.14,6.67,21.89,13.8,31.37l.63.85,56.61,77.67c.78,1.08,2.39,1.09,3.19.02l58.9-78.54c11.26-15.04,16.27-33.18,14.7-51.09ZM80.41,188.48c1.18-2.45,5.01-8.21,13.32-8.21s12.14,5.77,13.32,8.21c1.27,2.54,3.59,9.03-1.39,15.64l-11.93,15.91-11.93-15.91c-4.98-6.61-2.66-13.1-1.39-15.64Z"/>
  <path class="st0" d="M160.57,162.18c-.03-.12-.09-.21-.15-.33-12.74-25.48-38.26-41.25-66.7-41.25s-53.96,15.76-66.7,41.25c-7.43,14.83-9.6,31.16-6.76,46.71,2.05,11.14,6.67,21.89,13.8,31.37l.63.85c2.48.12,4.95.18,7.46.18,49.16,0,93.69-19.93,125.94-52.12-.82-9.09-3.29-18.12-7.52-26.66ZM105.65,204.12l-11.16,14.88c-.39.51-1.16.51-1.54,0l-11.16-14.88c-4.98-6.61-2.66-13.1-1.39-15.64,1.18-2.45,5.01-8.21,13.32-8.21s12.14,5.77,13.32,8.21c1.27,2.54,3.59,9.03-1.39,15.64Z"/>
</svg>