<?xml version="1.0" encoding="UTF-8"?>
<svg id="Layer_1" xmlns="http://www.w3.org/2000/svg" version="1.1" viewBox="0 0 1080 1080">
  <!-- Generator: Adobe Illustrator 30.3.0, SVG Export Plug-In . SVG Version: 2.1.3 Build 182)  -->
  <defs>
    <style>
      .st0 {
        font-family: LibertinusSerif-SemiBoldItalic, 'Libertinus Serif';
        font-size: 66.08px;
        font-style: italic;
        font-weight: 600;
      }

      .st1 {
        stroke: #000;
        stroke-miterlimit: 10;
        stroke-width: 8px;
      }
    </style>
  </defs>
  <g>
    <path d="M610.37,548.95c-20.87,13.65-42.57,26.78-66.94,33.3-27.84,7.45-88.65,9.8-115.81,1.25-4.98-1.57-9.61-3.76-13.89-6.73-1.61,36-25.5,61.79-58.29,73.71-2.97.89-4.71-1.84-6.48-3.67-2.59-2.69-20.14-23.78-20.23-25.4-.08-1.37.79-3.66,2.2-4.17,20.28-4.13,41.26-11.04,57.77-23.76,10.09-7.77,13.06-8.17,6.95-20.23-5.28-10.43-13.11-19.55-19.03-29.58l18.88-32.13c8.8,12.77,16.38,26.73,31,33.74,24.16,11.59,83.36,8.62,110.36,4.5,19.62-3,38.27-9.7,57.2-15.23.28-1.29-1-1.08-1.92-1.4-4.58-1.62-10.17-2.98-14.94-4.27-22.9-6.19-44.75-12.98-66.59.88,3.81-8.74,7.04-18.04,11.33-26.55,3.15-6.24,3.74-8.47,10.73-11.33,25.82-10.57,52.68,4.41,77.49,10.75,15.77,4.03,30.97,6.76,47.2,3.15l-11,33.6c-3.18,2.93-18.22.85-21.61,6.67,9.61,6.15,21.84,7.58,33.13,6.77,32.16-2.33,28.13-27.86,45.04-47.05,27.46-31.17,60.74,17.58,58.03,45.57-.59,6.15-11.34,30.39-15.12,35.71-6.2,8.72-21.91,3.03-30.19.03-11.24-4.07-20.08-10.21-29.01-18-3.53,4.93-6.31,12.07-12,14.89-15.71,7.8-49.16,5.14-59.9-10.14-.8-1.14-4.38-8.29-4.38-9.05v-15.83ZM739.86,557.58c-2.13-9.81-20.75-30.69-30.94-28.62-2.46.5-8.38,5.31-6.52,8.02,7.04,10.23,26.26,16.28,37.46,20.59Z"/>
    <path d="M112.59,512.56l12.39,1.86c-1.26,5.91-4.06,11.3-5.29,17.25-12.88,62.21,68.14,55.3,103.2,35.83-2.02-18.94-12.09-35.21-20.98-51.49l22.34-29.41c18.36,29.64,26.61,67.33,7.97,99.09-20.32,34.63-90.52,46.65-120.22,18.92-26.25-24.51-15.48-65.01.59-92.05Z"/>
    <path d="M325.46,572.94c-43.52,13.04-74.67-9.38-56.1-55.63,23.14-57.64,71.75-15.06,72.45,31.12.61,40.76-18.86,73.83-58.04,86.89-5.02,1.67-21.14,6.67-25.04,3.87l-19.08-28.89c-3.64-9.84,12.17-6.2,18.18-6.68,25.15-2.01,52.71-8.7,67.64-30.68ZM317.79,543.19c1.67-1.63-7.48-10.19-9.09-11.53-4.16-3.47-12.01-8.74-17.37-9.48-11.91-1.65-13.05,5.86-5.2,12.87,8.42,7.52,20.94,7.7,31.66,8.14Z"/>
    <polygon points="140.32 503.84 157.26 470.38 187.31 482.27 171.06 515.92 140.32 503.84"/>
    <polygon points="368.63 486.58 383.99 452.06 414.59 464.99 398.7 498.03 368.63 486.58"/>
    <path d="M592.14,440.56l-15.36,34.52-30.68-11.52,15.34-34.11c2.08-1.3,26.07,10.66,30.7,11.11Z"/>
    <polygon points="734.61 441.23 724.37 465.53 639.84 489.47 650.3 465.34 734.61 441.23"/>
  </g>
  <text class="st0" transform="translate(414.59 644.46)"><tspan x="0" y="0">Makhzon</tspan></text>
  <path class="st1" d="M887.07,650.65h-2.45l-96.3-47.2-.47-1.98v-110.67c-.06-1.36.54-2.53,1.77-3.12l96.03-46.08c1.33-.06,7.93,3.32,9.73,4.17,29.03,13.67,57.62,28.31,86.69,41.91,1.24.59,1.83,1.76,1.77,3.12v110.67l-.47,1.98-96.3,47.2ZM973.62,490.22l-87.63-41.96-25.04,11.75.53.91,86.71,41.86,25.43-12.56ZM940.96,505.73l-86.85-41.58c-6.49,1.51-12.05,6.1-18.47,8.11l87.25,42.37,17.55-7.99.52-.91ZM977.7,495.52l-27.97,13.47-.51,38.28c-.61,1.41-8.25,4.81-10.16,5.76-3.89,1.93-10.28,5.45-14.14,6.68-2.22.71-3.42.23-4.37-1.94v-36.35s-.66-1.36-.66-1.36l-91.09-44.06-30.72,14.62,66.01,31.77c3.86,2.29,1.23,7.31-3.03,5.47l-67.06-32.34v104.51l88.59,42.46v-104.51c-2.74-1.52-11.74-3.68-9.07-8.05,2.48-4.07,9.4,2.94,12.85,2.68l22.49-10.43c2.87.46,4.1,3.65,1.71,5.61l-21.44,10.19v104.51l88.59-42.46v-104.51ZM943.41,512.26l-16.74,7.96v31.64l16.74-7.76v-31.84Z"/>
</svg>