<?xml version="1.0" encoding="UTF-8"?>
<svg id="Layer_1" xmlns="http://www.w3.org/2000/svg" version="1.1" viewBox="0 0 1080 1080">
  <!-- Generator: Adobe Illustrator 30.3.0, SVG Export Plug-In . SVG Version: 2.1.3 Build 182)  -->
  <defs>
    <style>
      .st0 {
        font-size: 173.95px;
      }

      .st0, .st1 {
        font-family: Alexandria-SemiBold, Alexandria;
        font-weight: 600;
      }

      .st0, .st1, .st2, .st3 {
        isolation: isolate;
      }

      .st0, .st1, .st4, .st3 {
        fill: #14123d;
      }

      .st5 {
        fill: #ff6700;
      }

      .st1 {
        font-size: 139.35px;
      }

      .st6 {
        fill: #fff;
      }

      .st3 {
        font-family: ArialMT, Arial;
        font-size: 41.74px;
      }
    </style>
  </defs>
  <g>
    <g class="st2">
      <text class="st1" transform="translate(367.25 583.66)"><tspan x="0" y="0">menu</tspan></text>
      <text class="st0" transform="translate(780.55 583.66)"><tspan x="0" y="0"> </tspan></text>
      <text class="st1" transform="translate(827.51 583.66)"><tspan x="0" y="0">ap</tspan></text>
    </g>
    <g>
      <path class="st4" d="M873.58,477.76c0,3.15-1.28,6.02-3.34,8.08s-4.91,3.34-8.08,3.34h-117.1c-6.32,0-11.42-5.11-11.42-11.42,0-3.15,1.28-6,3.34-8.06s4.94-3.34,8.08-3.34h117.1c6.32,0,11.42,5.11,11.42,11.4Z"/>
      <path class="st4" d="M814.53,466.36v121.42c0,6.28-5.08,11.38-11.36,11.38-3.15,0-5.98-1.28-8.04-3.34-2.04-2.06-3.32-4.89-3.32-8.04v-121.42h22.72Z"/>
    </g>
  </g>
  <g class="st2">
    <text class="st3" transform="translate(456.91 635.66)"><tspan x="0" y="0">meet Loyalty &amp; Growth</tspan></text>
  </g>
  <rect class="st5" x="90.95" y="419.39" width="241.23" height="241.23" rx="29.74" ry="29.74"/>
  <circle class="st6" cx="211.56" cy="540" r="101"/>
</svg>