<?xml version="1.0" encoding="UTF-8"?>
<svg id="Layer_1" xmlns="http://www.w3.org/2000/svg" version="1.1" viewBox="0 0 512 512">
  <!-- Generator: Adobe Illustrator 30.2.1, SVG Export Plug-In . SVG Version: 2.1.1 Build 1)  -->
  <defs>
    <style>
      .st0 {
        fill: #6d1a36;
      }

      .st1 {
        fill: #fff;
      }
    </style>
  </defs>
  <circle class="st0" cx="256" cy="256" r="228.14"/>
  <path class="st1" d="M439.05,320.28c-31.78,31.79-80.17,36.84-117.24,15.16l-19.91,56.56h-27.94c-2.7,0-4.6-2.67-3.7-5.22l52.1-148.57c.56-2,1.25-3.95,2.05-5.84,7.39-17.51,24.44-29.95,44.47-30.64l-31.01,88.09-5.2,14.77c25.93,18.71,62.55,15.95,85.33-8.28s23.41-63.24.72-88.15c-25.14-27.61-67.93-28.36-94.03-2.26-7.6,7.6-12.92,16.61-15.97,26.19h.02s-.21.62-.21.62l-52.84,153.2-57.49-157.49-53.5,163.56L63.31,170.41c-1.79-4.89,1.82-10.07,7.03-10.07h28.2l43.41,132.77,44.68-132.77h22.63l46,132.77,23.23-70.96c.13-.4.26-.81.4-1.21l.09-.28h0c4.62-13.61,12.36-26.39,23.21-37.25,37.79-37.79,99.07-37.79,136.86,0,37.79,37.79,37.79,99.07,0,136.86Z"/>
</svg>