<?xml version="1.0" encoding="UTF-8"?>
<svg id="Layer_1" xmlns="http://www.w3.org/2000/svg" version="1.1" viewBox="0 0 1080 500">
  <!-- Generator: Adobe Illustrator 30.3.0, SVG Export Plug-In . SVG Version: 2.1.3 Build 182)  -->
  <defs>
    <style>
      .st0 {
        fill: #f9f9ec;
      }

      .st1 {
        fill: #fff;
      }
    </style>
  </defs>
  <path class="st1" d="M1046.89,284.29c-16.9-10.08-37.04-11-56.23-11.26-4.23-.05-13.05,1.25-15.98-.37l.78-1.56c19.57-23.59,29.83-48.13,27.51-79.14-1.15-12.55-6.49-29.02-16.64-37.13-17.56-14.05-42.02-7.91-54.8,9.51-21.88,29.86-25.19,73.78-11.1,107.55-6.9,5.3-15.25,14.97-24.34,13.13-36.93-7.45,3.83-78.21-33.41-85.5-25.18-4.93-44.86,28.5-59.54,44.27-1.18-23.63-.5-57.39-33.83-56.25-24.63.83-36.11,31.53-45.56,49.2.61-16.79,9.71-63.78-22.99-47.11-5.38,2.74-7.12,23.95-8.16,30.13-7.24,1.64-13.53,1.56-20.94,1.3-.05-21.06-.33-46.26-16.1-62.73-4.32-4.51-10.28-7.5-16.62-7.53-5.1-.07-9.98,2-13.48,5.71-15.5,16.14-5.31,50.41,11.13,61.9,4.76,3.31,8.68,6.81,13.57,10.15-4.23,15.27-10.43,37.52-25.24,46.01-2.48,1.43-5.71,2.4-8.56,1.66-2.56-.66-4.28-2.42-5.49-4.72-7.84-14.76-2.35-54.21-16.5-58.96-3.23-1.09-8.47-.91-11.52.68-4.12,2.16-6.16,7.58-7.25,11.79-3.49,13.36-8.52,56.62-20.94,64.01-1.48.87-3.33,1.43-5.04.98-2.12-.58-3.5-2.56-4.35-4.47-5.49-12.11-3.62-48.51-2.76-62.64.38-6.33,1.99-15.13.48-21.22-1.19-5.08-4.77-9.26-9.59-11.25-16.95-6.96-20.08,10.22-21.89,21.88-1.48,9.38-2.5,18.83-3.09,28.32-.33,4.81-.25,13.32-1.4,17.55-2.09,7.66-12.28,33.77-22.42,30.58-12.1-10.92,9.97-53.66-8.19-61.43-17.27-7.39-21.14,13.66-24.65,23.99-5.04,14.86-13.49,35.22-30.37,38.32-10.2,1.18-10.97-16.76-10.76-23.14.82-24.75,15.37-62.32,45.12-61.63,7.22.17,13.25,4.19,18.05,9.29,3.52,3.74,6.08,8.22,11.45,6.73,2.39-2.23,2.84-4.47,2.92-7.67.44-18.75-11.21-30.72-30.39-30.15-19.89.58-38.12,10.68-51.58,25.07-14.32,15.5-20.65,29.18-25.32,49.24-6.92,5.17-13.21,8.93-20.69,13.21l11.56-82.64c1.84-13.52,3.99-26.73,5.1-40.46.91-11.28-4.39-15.62-15.28-17.16-4.04-.57-9.55.5-12.68,3.39-6.02,6.31-6.52,20.84-8.81,29.42-6.98,26.08-20.59,88.11-55.1,87.43-2.77-.05-6.19-1.7-7.79-3.84-12.1-16.27-7.62-52.24-8.98-72.59-2.7-40.13-15.85-78.7-61.33-82.48-3.75-.3-7.53-.29-11.26.07-24.2,2.76-44.43,13.3-59.82,32.39-9.1,11.28-12.71,24.17-.05,34.6,5.06,4.15,11.85,5.5,16.11-.42,3.17-4.4,5.17-10.42,7.91-14.88,27.38-44.68,63.36-38.28,70.49,14.22,1.67,12.27,2.25,24.61,2.33,37.1.83,24.74-3.07,63.71,19.51,80.08,10.43,7.54,26.04,9.42,38.34,7.05,17.81-3.43,26.42-12.96,36.92-26.61-1.27,10.46-3.71,21.31-4.8,31.31-28.6,17.66-59.94,40.05-68.9,74.12-4.86,18.46,3.76,41.23,23.31,43.62,56.13,6.88,73.61-79.99,80.24-116.63,9.14-5.17,13.23-7.91,21.24-14.66,1.56,13.44,3.49,26.73,15.05,35.38,23.4,17.52,49.18,3.91,61.22-18.22,1.4,24.62,16.23,31.64,36.53,16.21,7.7-5.86,13.01-17.24,18.19-25.51,3.64,14.38,7.7,27.13,21,35.32,18.3,11.28,34.3.57,43.32-15.73,3.91-7.12,6.93-14.68,9.01-22.55,5.1,17.12,14.67,47.8,39.99,39.49,16.58-5.43,28.61-24.85,35.57-39.99,6.45-13.9,10.57-28.76,12.2-44,7.41.46,13.61.53,21,.53-1.44,16.05-8.11,63.82,2.42,75.57,2.72,3.02,6.98,4.53,10.96,4.68,3.58.12,7.38-.91,9.98-3.46,5.38-5.25,14.89-43.78,18.8-54.16,4.55-12.06,10.85-24.53,19.61-34.12,2.66-2.94,7.05-7.34,11.18-7.67,1.87-.15,3.07.25,4.41,1.59,10.69,10.6-9.36,77.02,3.6,94.7,2.09,2.89,6,4.41,9.45,4.89,3.98.56,7.92-.65,11.09-3.1,8-6.23,11.04-20.53,14.87-29.75,5.02-12.06,20.05-46.08,32.65-49.1,3.09,1.56,3.02,5.67,2.81,8.8-1.35,19.78-3.86,43.54,15.37,56.15,8.37,5.47,18.3,5.88,27.78,3.64,12.13-2.36,31.11-16.82,41.32-16.91l.64.66c-2.97,4.35-11.97,7.79-16.72,10.84-21.14,13.61-57.53,31.79-53.32,62.07.95,6.78,6.53,12.85,12.06,16.35,30.51,18.68,73.11,19.84,107.42,13.41,28.74-5.38,59-20.55,75.49-45.16,12.34-18.42,15.25-46.61-6.55-59.59h.04ZM967.26,172.39c13.25.95,14.55,16.68,14.09,27.03-.98,21.92-8.12,44.92-24.5,60.27-2.05,1.21-1.05,1.11-3.06.74-15.15-14.71-12.18-79.79,13.48-88.04h-.01ZM1016.19,346.89c-21.83,20.74-50.94,25.44-79.88,25.63-60.15.19-55.18-33.13-12.89-59.61,24.77-15.49,32.25-14.35,60.53-15.05,12.66-.03,30.21.57,39.81,10.03,11.4,11.24,2.09,29.83-7.57,39h0Z"/>
  <path class="st0" d="M316.68,312.02c.92,3.98-5.52,24.15-7.49,29.27-2.89,7.51-11.9,39.67-22.72,35.36-11.32-21.75,15.4-51.16,30.21-64.63h0Z"/>
  <path class="st1" d="M159.84,246.69c-4.45-39.69-40.26-68.25-79.95-63.77-39.65,4.48-68.17,40.25-63.71,79.89,4.44,39.65,40.17,68.19,79.83,63.77,39.7-4.41,68.29-40.19,63.83-79.89h0ZM94.67,311.08c-31.13,3.63-59.31-18.68-62.92-49.83-3.6-31.14,18.74-59.31,49.88-62.88,31.1-3.58,59.22,18.72,62.83,49.83,3.6,31.1-18.68,59.25-49.79,62.88Z"/>
  <path class="st1" d="M127.37,227.61c7.9-.06,11.95,6.32,6.55,12.34-16.21,18.08-34.77,34.6-52.62,51.09-1.12,1.03-3.6,2.52-5.19,2.71-8.91-.66-22.18-17.22-27.51-23.3-2.71-3.1-8.56-9.26-8.89-13.57-1.09-13.28,9.18-10.51,16.07-3.99,6.42,6.07,12.68,12.44,18.96,18.62,17.35-12.74,36.28-32.42,52.63-43.89h0Z"/>
</svg>